<?xml version="1.0" standalone="no"?>
<!DOCTYPE svg PUBLIC "-//W3C//DTD SVG 20010904//EN"
 "http://www.w3.org/TR/2001/REC-SVG-20010904/DTD/svg10.dtd">
<svg version="1.0" xmlns="http://www.w3.org/2000/svg"
 width="396.000000pt" height="396.000000pt" viewBox="0 0 396.000000 396.000000"
 preserveAspectRatio="xMidYMid meet">
<metadata>
Created by potrace 1.14, written by Peter Selinger 2001-2017
</metadata>
<g transform="translate(0.000000,396.000000) scale(0.100000,-0.100000)"
fill="#000000" stroke="none">
<path d="M1600 3942 c-20 -11 -43 -34 -53 -56 -19 -36 -18 -39 7 -181 31 -169
31 -169 10 -189 -25 -26 -53 -19 -219 49 -167 69 -221 79 -263 49 -31 -21 -52
-66 -52 -110 0 -34 10 -47 122 -161 88 -88 128 -123 143 -121 46 7 28 39 -89
157 -64 65 -116 121 -116 124 0 21 27 58 45 63 14 3 85 -21 195 -65 95 -39
185 -71 200 -71 41 0 93 40 107 82 10 31 8 57 -12 170 -29 157 -30 172 -9 192
32 32 59 19 166 -80 112 -104 146 -124 208 -124 57 0 83 16 201 125 103 94
122 105 160 85 25 -14 24 -46 -1 -185 -28 -152 -27 -177 11 -219 53 -61 75
-59 281 24 154 63 182 71 203 62 13 -6 27 -23 31 -38 6 -23 -6 -38 -110 -143
-64 -64 -116 -124 -116 -133 0 -9 9 -20 21 -23 17 -6 42 13 132 102 62 59 117
117 124 128 7 11 12 40 13 64 0 36 -6 49 -34 77 -54 54 -73 51 -279 -32 -88
-35 -170 -64 -183 -64 -13 0 -30 10 -38 23 -14 20 -13 38 11 176 l27 153 -19
37 c-12 22 -35 43 -58 55 -60 29 -94 13 -222 -103 -60 -55 -122 -103 -136
-106 -42 -10 -82 14 -183 108 -133 123 -159 134 -226 99z"/>
<path d="M1003 3036 c-90 -22 -164 -65 -239 -140 -76 -76 -115 -141 -139 -233
-19 -73 -19 -192 0 -263 8 -30 15 -58 15 -62 0 -3 -24 -19 -52 -36 -29 -16
-79 -57 -111 -90 -197 -208 -189 -537 18 -731 36 -33 84 -70 106 -81 34 -18
39 -24 33 -43 -17 -54 -24 -97 -24 -162 -1 -234 152 -433 383 -500 53 -15 58
-19 52 -38 -4 -12 -9 -60 -12 -107 -9 -151 41 -280 149 -390 206 -207 533
-205 741 5 l63 64 41 -48 c92 -107 236 -172 382 -173 155 -1 280 51 384 161
119 127 168 288 137 451 -6 29 -8 55 -6 58 3 2 24 8 48 13 171 39 337 206 377
379 15 65 13 209 -3 263 l-14 46 52 29 c150 86 256 269 256 447 0 178 -105
361 -256 446 -30 17 -54 34 -54 37 0 4 7 30 16 57 18 60 20 192 3 260 -19 80
-77 182 -139 244 -204 204 -529 202 -735 -4 l-60 -60 -60 60 c-207 207 -534
207 -738 0 l-60 -60 -61 61 c-129 129 -318 182 -493 140z m195 -56 c125 -21
239 -93 306 -194 20 -31 43 -56 51 -56 8 0 32 24 53 53 55 74 115 125 186 158
200 93 429 34 559 -143 27 -37 55 -68 63 -68 7 0 31 26 54 59 133 189 368 249
575 147 210 -104 304 -337 225 -563 -12 -35 -19 -67 -16 -72 3 -4 31 -21 61
-36 87 -42 168 -124 212 -213 38 -75 38 -77 38 -197 0 -120 0 -122 -38 -197
-44 -89 -125 -171 -213 -214 -63 -31 -62 -25 -29 -144 67 -241 -107 -506 -361
-551 -91 -16 -92 -16 -71 -93 71 -267 -85 -524 -351 -576 -174 -35 -365 44
-458 188 -49 76 -71 80 -107 19 -32 -54 -121 -138 -175 -166 -23 -12 -67 -28
-99 -36 -348 -91 -656 246 -542 592 15 46 3 58 -78 73 -117 22 -216 86 -284
182 -75 107 -102 240 -74 358 33 134 36 123 -44 165 -189 99 -280 310 -226
520 31 120 124 232 239 288 31 16 59 34 62 41 3 7 -4 40 -15 72 -43 131 -37
237 24 360 61 124 189 220 325 243 76 12 77 12 148 1z"/>
</g>
</svg>
